<svg xmlns="http://www.w3.org/2000/svg" width="165.893" height="65.553" viewBox="0 0 165.893 65.553"><g id="Group_1809" data-name="Group 1809" transform="translate(-100.722 -402.709)"><g id="Group_1807" fill="#11110e" data-name="Group 1807" transform="translate(154.349 430.56)"><path id="Path_1808" d="M432.108 586.485c-.1.219-.214.5-.346.836q-.145-.358-.337-.791l-4.8-10.919h-3.1v16.17h2.621V580.85l4.886 10.931h1.455l4.833-10.868v10.869h2.675v-16.17h-2.985Z" data-name="Path 1808" transform="translate(-423.516 -574.738)"/><path id="Path_1809" d="M541.531 600.359a5.853 5.853 0 0 0-4.379 1.68 6.351 6.351 0 0 0-1.629 4.6 6.119 6.119 0 0 0 1.565 4.36 5.513 5.513 0 0 0 4.187 1.669 5.622 5.622 0 0 0 4.284-1.712 6.316 6.316 0 0 0 1.6-4.487 6.409 6.409 0 0 0-1.485-4.466 5.341 5.341 0 0 0-4.143-1.644Zm2.132 9.013a2.747 2.747 0 0 1-2.26.935 2.914 2.914 0 0 1-2.317-.967 4.039 4.039 0 0 1-.878-2.76 4.3 4.3 0 0 1 .872-2.867 2.871 2.871 0 0 1 2.323-.988 2.732 2.732 0 0 1 2.258.944 4.443 4.443 0 0 1 .809 2.868 4.358 4.358 0 0 1-.807 2.835Z" data-name="Path 1809" transform="translate(-516.915 -595.374)"/><path id="Path_1810" d="M622.954 575.339a4.512 4.512 0 0 0-3.365 1.349v-6.334h-2.643V587.4h2.643v-.806a4.036 4.036 0 0 0 2.865 1.062 4.88 4.88 0 0 0 3.991-1.812 7.222 7.222 0 0 0 1.431-4.665 6.505 6.505 0 0 0-1.288-4.207 4.444 4.444 0 0 0-3.634-1.633Zm-2.549 3.272a2.644 2.644 0 0 1 2.113-.907 2.34 2.34 0 0 1 1.932.868 3.992 3.992 0 0 1 .741 2.572 5.172 5.172 0 0 1-.812 3.11 2.688 2.688 0 0 1-4.031.233 2.787 2.787 0 0 1-.759-1.99v-1.523a3.43 3.43 0 0 1 .811-2.363Z" data-name="Path 1810" transform="translate(-584.811 -570.354)"/><path id="Path_1811" d="M694.487 600.359a7.231 7.231 0 0 0-3.947 1.093l-.207.132v3l.737-.623a4.891 4.891 0 0 1 3.268-1.236c.782 0 1.673.231 1.787 1.944l-2.871.4c-3.295.458-3.986 2.429-3.986 4a3.433 3.433 0 0 0 1.063 2.617 4.5 4.5 0 0 0 5.807-.163v.891h2.643v-7.542c-.001-2.951-1.481-4.513-4.294-4.513Zm-.895 9.948a1.758 1.758 0 0 1-1.221-.393 1.225 1.225 0 0 1-.419-.97 1.321 1.321 0 0 1 .426-1.161 3.872 3.872 0 0 1 1.637-.525l2.122-.292v.573a2.8 2.8 0 0 1-.727 2 2.354 2.354 0 0 1-1.818.768Z" data-name="Path 1811" transform="translate(-645.117 -595.374)"/><path id="Path_1812" d="m755.72 610.034-2.843-8.136h-2.884l4.472 11.8h2.328l4.7-11.8h-2.817Z" data-name="Path 1812" transform="translate(-695.754 -596.658)"/><path id="Path_1813" d="M824.828 600.359a5.078 5.078 0 0 0-3.917 1.751 6.422 6.422 0 0 0-1.558 4.448 6.535 6.535 0 0 0 1.434 4.478 5.058 5.058 0 0 0 3.967 1.636 6.791 6.791 0 0 0 4.065-1.129l.185-.134v-2.791l-.725.57a4.88 4.88 0 0 1-3.11 1.118 2.926 2.926 0 0 1-2.252-.85 3.392 3.392 0 0 1-.83-2.056h7.674v-1.364a6.227 6.227 0 0 0-1.278-4.134 4.545 4.545 0 0 0-3.655-1.543Zm-.032 2.366a2.043 2.043 0 0 1 1.657.685 2.839 2.839 0 0 1 .6 1.615h-4.876a3.385 3.385 0 0 1 .841-1.551 2.369 2.369 0 0 1 1.782-.749Z" data-name="Path 1813" transform="translate(-753.592 -595.374)"/><path id="Path_1814" d="M898.322 600.359a4.307 4.307 0 0 0-3.174 1.257v-1h-2.643v11.8h2.643v-6.668a3.192 3.192 0 0 1 .747-2.193 2.3 2.3 0 0 1 1.83-.831c.9 0 2.087.313 2.087 3.024v6.668h2.643V605.3a5.594 5.594 0 0 0-1.05-3.623 3.777 3.777 0 0 0-3.083-1.318Z" data-name="Path 1814" transform="translate(-814.591 -595.374)"/><path id="Path_1815" d="M972.711 608.63a3.149 3.149 0 0 1-.711 2.17 2.225 2.225 0 0 1-1.767.79c-.942 0-2.194-.311-2.194-3v-6.69H965.4v6.967c0 4.208 2.364 5.092 4.346 5.092a4.032 4.032 0 0 0 2.96-1.137v.881h2.643V601.9h-2.643Z" data-name="Path 1815" transform="translate(-875.379 -596.658)"/><path id="Path_1816" d="M1047.041 606.037a6.228 6.228 0 0 0-1.278-4.134 4.545 4.545 0 0 0-3.654-1.543 5.078 5.078 0 0 0-3.917 1.751 6.422 6.422 0 0 0-1.558 4.448 6.535 6.535 0 0 0 1.434 4.478 5.058 5.058 0 0 0 3.967 1.636 6.791 6.791 0 0 0 4.066-1.129l.185-.134v-2.791l-.725.57a4.88 4.88 0 0 1-3.11 1.118 2.926 2.926 0 0 1-2.252-.85 3.392 3.392 0 0 1-.83-2.056h7.673Zm-4.964-3.312a2.043 2.043 0 0 1 1.657.685 2.837 2.837 0 0 1 .6 1.615h-4.876a3.387 3.387 0 0 1 .841-1.551 2.37 2.37 0 0 1 1.778-.749Z" data-name="Path 1816" transform="translate(-934.775 -595.374)"/></g><path id="Path_1817" fill="#ee750b" d="M104.534 582.256v-23.4L122.448 568s1.22.991 1.906 0l17.762-10.139v24.852l4.345-2.287v-25.453a2 2 0 0 0-.941-1.706 3.774 3.774 0 0 0-2.871-.36l-17.152 9.91a3.762 3.762 0 0 1-4.269 0l-17.61-9.529s-2.9-1.753-2.9 1.982v24.909Z" data-name="Path 1817" transform="translate(0 -125.145)"/><path id="Path_1818" fill="#11110e" d="M156.428 726.207a.221.221 0 0 1-.206 0l-16.249-8.744v4.337l15.043 8.64a2.557 2.557 0 0 0 1.219.284 3.211 3.211 0 0 0 1.289-.279l15.147-8.068v-4.448Z" data-name="Path 1818" transform="translate(-32.73 -262.462)"/><path id="Path_1819" fill="#11110e" d="M168.6 499.967a.669.669 0 0 0-.4-.525l-15.7-6.816a2.867 2.867 0 0 0-2.477 0l-15.723 6.685a.673.673 0 0 0-.113 1.178l2.266 1.526a1.115 1.115 0 0 0 1.078.1l12.88-5.661.022-.011a2.017 2.017 0 0 1 1.844-.088l13 5.939a1.114 1.114 0 0 0 1.175-.151l1.91-1.56a.669.669 0 0 0 .238-.616Z" data-name="Path 1819" transform="translate(-27.661 -74.751)"/><path id="Path_1820" fill="#ee750b" d="m363.873 500.027-.224-3.664s8.69-.515 11.378 10.234h-4.059s-.463-6.57-7.095-6.57Z" data-name="Path 1820" transform="translate(-219.246 -78.092)"/><path id="Path_1821" fill="#ee750b" d="m363.873 454.389-.224-3.664s5.946-.8 12.178 4.288c5.249 4.286 5.526 9.067 6.632 13.493H378.4a18.079 18.079 0 0 0-4.174-9.72c-2.456-2.679-7.726-4.397-10.353-4.397Z" data-name="Path 1821" transform="translate(-219.246 -40.001)"/><path id="Path_1822" fill="#ee750b" d="m361.464 406.384-.224-3.664s10.691-.572 17.952 6.518c8.3 8.106 8.213 14.841 9.319 19.268h-4.059s1.2-6.866-6.461-15.094c-5.431-5.833-13.897-7.028-16.527-7.028Z" data-name="Path 1822" transform="translate(-217.237)"/></g></svg>